<svg width="48" height="48" viewBox="0 0 48 48" fill="none" xmlns="http://www.w3.org/2000/svg">
<rect width="48" height="48" rx="8" fill="#FFE3E3"/>
<path d="M19 22.3078C18.3096 22.3078 17.75 22.8674 17.75 23.5578C17.75 24.2481 18.3096 24.8078 19 24.8078H29C29.6904 24.8078 30.25 24.2481 30.25 23.5578C30.25 22.8674 29.6904 22.3078 29 22.3078H19Z" fill="#EC2D30"/>
<path d="M21.5 28.8402C20.8096 28.8402 20.25 29.3998 20.25 30.0902C20.25 30.7805 20.8096 31.3402 21.5 31.3402H26.5C27.1904 31.3402 27.75 30.7805 27.75 30.0902C27.75 29.3998 27.1904 28.8402 26.5 28.8402H21.5Z" fill="#EC2D30"/>
<path fill-rule="evenodd" clip-rule="evenodd" d="M24.11 6.08301H24.0033C23.1612 6.08299 22.4468 6.08297 21.854 6.13693C21.2249 6.1942 20.6389 6.31824 20.0723 6.61954C19.8487 6.73844 19.6353 6.87569 19.4343 7.02986C18.9251 7.42048 18.5692 7.90223 18.2562 8.45089C17.9612 8.96793 17.6649 9.61793 17.3157 10.3842L16.6173 11.9163H9C8.30964 11.9163 7.75 12.476 7.75 13.1663C7.75 13.8567 8.30964 14.4163 9 14.4163H10.3232L11.2638 29.9981C11.3896 32.0809 11.4893 33.7336 11.6969 35.0538C11.9097 36.4077 12.252 37.5353 12.9385 38.5218C13.5665 39.4242 14.3756 40.1859 15.3142 40.7584C16.3402 41.3842 17.4864 41.6579 18.8506 41.7887C20.1809 41.9164 21.8366 41.9164 23.923 41.9163H24.0525C26.1362 41.9164 27.7899 41.9164 29.1186 41.789C30.4813 41.6583 31.6262 41.3852 32.6515 40.7606C33.5895 40.1891 34.3984 39.4287 35.0266 38.5277C35.7133 37.5429 36.0566 36.417 36.2711 35.065C36.4802 33.7467 36.5822 32.0962 36.7108 30.0164L37.6751 14.4163H39C39.6904 14.4163 40.25 13.8567 40.25 13.1663C40.25 12.476 39.6904 11.9163 39 11.9163H31.5424L30.7232 10.2265C30.365 9.48741 30.0608 8.85994 29.7614 8.36114C29.4436 7.83163 29.0863 7.36758 28.5832 6.99235C28.3844 6.84408 28.1739 6.71217 27.9537 6.59795C27.3966 6.30892 26.8232 6.18981 26.208 6.13479C25.6286 6.08297 24.9314 6.08299 24.11 6.08301ZM28.7642 11.9163H19.3648L19.5681 11.4702C19.9458 10.6417 20.1957 10.0963 20.4276 9.68979C20.6478 9.30389 20.8058 9.12866 20.956 9.01339C21.0474 8.94332 21.1444 8.88094 21.246 8.82689C21.4132 8.73798 21.6382 8.66692 22.0806 8.62664C22.5468 8.5842 23.1467 8.58301 24.0572 8.58301C24.9456 8.58301 25.5304 8.58416 25.9853 8.62485C26.417 8.66346 26.6377 8.7316 26.8024 8.81707C26.9025 8.86899 26.9982 8.92895 27.0885 8.99635C27.2373 9.10731 27.3949 9.27615 27.6179 9.64774C27.853 10.0394 28.1091 10.5651 28.4966 11.3645L28.7642 11.9163ZM13.7554 29.7829L12.8277 14.4163H35.1703L34.2195 29.7977C34.0861 31.9564 33.9901 33.4872 33.8019 34.6734C33.6169 35.8394 33.3593 36.5481 32.9759 37.0978C32.5461 37.7143 31.9926 38.2345 31.3508 38.6255C30.7785 38.9742 30.0553 39.1877 28.88 39.3004C27.6845 39.415 26.1507 39.4163 23.9879 39.4163C21.8222 39.4163 20.2864 39.415 19.0894 39.3002C17.9126 39.1873 17.1887 38.9734 16.616 38.6241C15.9738 38.2324 15.4202 37.7112 14.9905 37.0937C14.6073 36.5431 14.3502 35.8334 14.1666 34.6656C13.9798 33.4777 13.8859 31.9447 13.7554 29.7829Z" fill="#EC2D30"/>
</svg>
