<svg width="32" height="33" viewBox="0 0 32 33" fill="none" xmlns="http://www.w3.org/2000/svg">
<rect x="0.488009" y="0.488009" width="31.024" height="32.024" rx="15.512" stroke="white" stroke-width="0.976018"/>
<path d="M7.59998 11.25H24.4M13.9 15.45V21.75M18.1 15.45V21.75M8.64998 11.25L9.69998 23.85C9.69998 24.407 9.92122 24.9411 10.3151 25.335C10.7089 25.7288 11.243 25.95 11.8 25.95H20.2C20.7569 25.95 21.2911 25.7288 21.6849 25.335C22.0787 24.9411 22.3 24.407 22.3 23.85L23.35 11.25M12.85 11.25V8.10005C12.85 7.82157 12.9606 7.5545 13.1575 7.35759C13.3544 7.16067 13.6215 7.05005 13.9 7.05005H18.1C18.3785 7.05005 18.6455 7.16067 18.8424 7.35759C19.0394 7.5545 19.15 7.82157 19.15 8.10005V11.25" stroke="white" stroke-width="1.68" stroke-linecap="round" stroke-linejoin="round"/>
</svg>
