<svg width="80" height="80" viewBox="0 0 80 80" fill="none" xmlns="http://www.w3.org/2000/svg">
<g clip-path="url(#clip0_4075_6646)">
<path d="M80 40V42C79.75 44.5 79.5 47 79 49.5C77 58 72.25 65.25 65.75 70.75C65.5 71 65 71.25 64.75 71.5C62.5 73.25 60 74.75 57.25 76C56.75 76.25 56.25 76.5 55.75 76.75C54.75 77.25 53.75 77.5 52.75 77.75C51.5 78.25 50.25 78.5 49 78.75C46 79.75 43 80 40 80C18 80 0 62 0 40C0 18 18 0 40 0C62 0 80 18 80 40Z" fill="#0C9D61"/>
<path d="M33.9999 57.4999C32.7499 57.4999 31.4999 56.9999 30.7499 55.9999L17.9999 41.4999C16.4999 39.7499 16.4999 36.9999 18.4999 35.2499C20.2499 33.7499 22.9999 33.7499 24.7499 35.7499L34.2499 46.7499L55.4999 23.9999C57.2499 22.2499 59.9999 22.2499 61.7499 23.7499C63.4999 25.4999 63.4999 28.2499 61.9999 29.9999L37.4999 56.2499C36.2499 56.9999 35.2499 57.4999 33.9999 57.4999Z" fill="white"/>
</g>
<defs>
<clipPath id="clip0_4075_6646">
<rect width="80" height="80" fill="white"/>
</clipPath>
</defs>
</svg>
