<svg width="264" height="24" viewBox="0 0 264 24" fill="none" xmlns="http://www.w3.org/2000/svg">
<path d="M12 4V20M8 9V15M20 10V14M4 10V14M16 7V17" stroke="white" stroke-width="1.5" stroke-linecap="round" stroke-linejoin="round"/>
<path d="M32 4V20M28 9V15M40 10V14M24 10V14M36 7V17" stroke="white" stroke-width="1.5" stroke-linecap="round" stroke-linejoin="round"/>
<path d="M52 4V20M48 9V15M60 10V14M44 10V14M56 7V17" stroke="white" stroke-width="1.5" stroke-linecap="round" stroke-linejoin="round"/>
<path d="M72 4V20M68 9V15M80 10V14M64 10V14M76 7V17" stroke="white" stroke-width="1.5" stroke-linecap="round" stroke-linejoin="round"/>
<path d="M92 4V20M88 9V15M100 10V14M84 10V14M96 7V17" stroke="white" stroke-width="1.5" stroke-linecap="round" stroke-linejoin="round"/>
<path d="M112 4V20M108 9V15M120 10V14M104 10V14M116 7V17" stroke="white" stroke-width="1.5" stroke-linecap="round" stroke-linejoin="round"/>
<path d="M132 4V20M128 9V15M140 10V14M124 10V14M136 7V17" stroke="white" stroke-width="1.5" stroke-linecap="round" stroke-linejoin="round"/>
<path d="M152 4V20M148 9V15M160 10V14M144 10V14M156 7V17" stroke="white" stroke-width="1.5" stroke-linecap="round" stroke-linejoin="round"/>
<path d="M172 4V20M168 9V15M180 10V14M164 10V14M176 7V17" stroke="white" stroke-width="1.5" stroke-linecap="round" stroke-linejoin="round"/>
<path d="M192 4V20M188 9V15M200 10V14M184 10V14M196 7V17" stroke="white" stroke-width="1.5" stroke-linecap="round" stroke-linejoin="round"/>
<path d="M212 4V20M208 9V15M220 10V14M204 10V14M216 7V17" stroke="white" stroke-width="1.5" stroke-linecap="round" stroke-linejoin="round"/>
<path d="M232 4V20M228 9V15M240 10V14M224 10V14M236 7V17" stroke="white" stroke-width="1.5" stroke-linecap="round" stroke-linejoin="round"/>
<path d="M252 4V20M248 9V15M260 10V14M244 10V14M256 7V17" stroke="white" stroke-width="1.5" stroke-linecap="round" stroke-linejoin="round"/>
</svg>
